<?xml version="1.0" standalone="no"?>
<!DOCTYPE svg PUBLIC "-//W3C//DTD SVG 20010904//EN"
 "http://www.w3.org/TR/2001/REC-SVG-20010904/DTD/svg10.dtd">
<svg version="1.0" xmlns="http://www.w3.org/2000/svg"
 width="50.000000pt" height="50.000000pt" viewBox="0 0 50.000000 50.000000"
 preserveAspectRatio="xMidYMid meet">

<g transform="translate(0.000000,50.000000) scale(0.100000,-0.100000)"
fill="#ffffff" stroke="none">
<path d="M20 400 c0 -27 3 -30 30 -30 27 0 30 3 30 30 0 27 -3 30 -30 30 -27
0 -30 -3 -30 -30z"/>
<path d="M105 409 c-16 -25 18 -29 191 -27 151 3 179 5 179 18 0 13 -28 15
-182 18 -125 2 -184 -1 -188 -9z"/>
<path d="M20 300 c0 -27 3 -30 30 -30 27 0 30 3 30 30 0 27 -3 30 -30 30 -27
0 -30 -3 -30 -30z"/>
<path d="M105 309 c-16 -25 18 -29 191 -27 151 3 179 5 179 18 0 13 -28 15
-182 18 -125 2 -184 -1 -188 -9z"/>
<path d="M20 200 c0 -27 3 -30 30 -30 27 0 30 3 30 30 0 27 -3 30 -30 30 -27
0 -30 -3 -30 -30z"/>
<path d="M105 209 c-16 -25 18 -29 191 -27 151 3 179 5 179 18 0 13 -28 15
-182 18 -125 2 -184 -1 -188 -9z"/>
<path d="M20 100 c0 -27 3 -30 30 -30 27 0 30 3 30 30 0 27 -3 30 -30 30 -27
0 -30 -3 -30 -30z"/>
<path d="M105 109 c-16 -25 18 -29 191 -27 151 3 179 5 179 18 0 13 -28 15
-182 18 -125 2 -184 -1 -188 -9z"/>
</g>
</svg>
